# xmcd CD database file
#
# Track frame offsets:
#	150
#	17024
#	35227
#	62203
#	82773
#	108475
#	122728
#	135791
#	151450
#	169922
#	181828
#
# Disc length: 2629 seconds
#
# Revision: 0
# Processed by: cddbd v1.5PL3 Copyright (c) Steve Scherf et al.
# Submitted via: CDex 1.51
#
DISCID=870a430b
DTITLE=Broken Spoke - Broken Spoke
DYEAR=2004
DGENRE=Country
TTITLE0=North Michigan Bridge
TTITLE1=Boston, Mass.
TTITLE2=Honeysuckle and Spindletree
TTITLE3=Dark November
TTITLE4=Weasel Weasel
TTITLE5=Be My Woman
TTITLE6=Sweet Nelly
TTITLE7=Travellin' Kind
TTITLE8=Rusty Boot
TTITLE9=Roseanna
TTITLE10=Load Up Your Pick-Up
EXTD=YEAR: 2004
EXTT0=
EXTT1=
EXTT2=
EXTT3=
EXTT4=
EXTT5=
EXTT6=
EXTT7=
EXTT8=
EXTT9=
EXTT10=
PLAYORDER=
